<svg xmlns="http://www.w3.org/2000/svg" viewBox="0 0 329 209" xml:space="preserve" style="fill-rule:evenodd;clip-rule:evenodd;stroke-linejoin:round;stroke-miterlimit:2"><path d="M19 3H9.009C7.899 3 7 3.898 7 5.007v22.986A2 2 0 0 0 8.997 30h15.006A1.995 1.995 0 0 0 26 28.003V11h-4.994A1.997 1.997 0 0 1 19 9.002Zm1 0v5.997c0 .554.451 1.003.991 1.003H26Zm-5.041 18.801L12 24.975V25h10v1H11v-8h1v5.509l2.91-3.121 2.194 2.046L20.306 19H19v-1h3v3h-1v-1.277l-3.847 4.124z" style="fill:#fff;fill-opacity:1" transform="translate(28.181 110.349) scale(3.26511)"/><path d="M22 25.5a2.5 2.5 0 1 1 0-4V21h1v5h-1ZM14.929 23 16 26h1l-3-8h-1l-3 8h1l1.071-3zm-.358-1L13.5 19l-1.071 3ZM19 3H9.009C7.899 3 7 3.898 7 5.007v22.986A2 2 0 0 0 8.997 30h15.006A1.995 1.995 0 0 0 26 28.003V11h-4.994A1.997 1.997 0 0 1 19 9.002Zm1 0v5.997c0 .554.451 1.003.991 1.003H26Zm.5 22a1.5 1.5 0 1 0-.001-3.001A1.5 1.5 0 0 0 20.5 25z" style="fill:#f5f5f5;fill-opacity:1" transform="translate(288.704 140.444) scale(1.18519)"/><g style="fill-opacity:1;fill:#f5f5f5"><path d="M19 3H9.009C7.899 3 7 3.898 7 5.007v22.986A2 2 0 0 0 8.997 30h15.006A1.995 1.995 0 0 0 26 28.003V11h-4.994A1.997 1.997 0 0 1 19 9.002Zm1 0v5.997c0 .554.451 1.003.991 1.003H26Zm-9 18v4h3v-4zm4-5v9h3v-9zm4 3v6h3v-6z" style="fill:#f5f5f5;fill-opacity:1" transform="translate(273.522 9.684) scale(2.10526)"/></g><path d="M11.293 19 8 16.2V8.002A.998.998 0 0 1 9 7h15c.545 0 1 .449 1 1.002V16.2L21.667 19H11.293Zm1.176 1 1.783 1.516h4.42L20.476 20h-8.007Zm9.716.127L20 22l5.923 5.077-.808.808-5.995-5.14-5.224.023-.021-.018-5.99 5.135-.808-.808L13 22l-2.185-1.873L7 16.9v-5.54L4 14v14.006C4 29.107 4.89 30 6.004 30h20.992A2 2 0 0 0 29 28.006V14l-3-2.64v5.54l-3.815 3.227ZM19.909 6 16.5 3l-3.409 3h6.818ZM10 10v1h13v-1H10Zm0 3v1h13v-1H10Zm0 3v1h13v-1H10Z" style="fill:#f2f2f2;fill-opacity:1" transform="translate(-9.926 -7.444) scale(2.48148)"/><path d="M22 24.046V18H11v7l2.5-2 1.458 1.25L18.593 21ZM19 3H9.009C7.899 3 7 3.898 7 5.007v22.986A2 2 0 0 0 8.997 30h15.006A1.995 1.995 0 0 0 26 28.003V11h-4.994A1.997 1.997 0 0 1 19 9.002Zm1 0v5.997c0 .554.451 1.003.991 1.003H26ZM10 17v10h13V17Zm4 4a1 1 0 1 0 0-2 1 1 0 0 0 0 2z" style="fill:#f5f5f5;fill-opacity:1" transform="translate(188.665 4.424) scale(1.76218)"/><path d="M21 26v2.003A1.995 1.995 0 0 1 19.003 30H3.997A2 2 0 0 1 2 27.993V5.007C2 3.898 2.899 3 4.009 3H14v6.002c0 1.111.898 1.998 2.006 1.998H21v2h-8.993A3.002 3.002 0 0 0 9 15.999v7.002A2.997 2.997 0 0 0 12.007 26ZM15 3v5.997c0 .554.451 1.003.991 1.003H21Zm-3.005 11C10.893 14 10 14.9 10 15.992v7.016A2 2 0 0 0 11.995 25h17.01C30.107 25 31 24.1 31 23.008v-7.016A2 2 0 0 0 29.005 14ZM12 20v.994c0 1.108.894 2.006 2.005 2.006h.99A1.999 1.999 0 0 0 17 20.994V16h-1v5.009a1 1 0 0 1-.999.991h-1.002A.997.997 0 0 1 13 21v-1zm6-4v7h1v-3h1.995a2 2 0 1 0 0-4Zm1 1v2h2.001A.997.997 0 0 0 22 18c0-.552-.443-1-.999-1Zm9 3v2h-2c-.556 0-1-.448-1-1v-3c0-.556.448-1 1-1h3v-1h-2.995A1.999 1.999 0 0 0 24 18.006v2.988c0 1.108.894 2.006 2.005 2.006H29v-4h-3v1z" style="fill:#f2f2f2;fill-opacity:1" transform="translate(103.73 10.824) scale(2.61671)"/><g style="fill:#f5f5f5;fill-opacity:1"><path d="M6 9V2.997C6 1.896 6.894 1 7.997 1h15.006C24.109 1 25 1.894 25 2.997V9ZM5 25H3.994A2.997 2.997 0 0 1 1 22.001v-9.002A2.998 2.998 0 0 1 3.994 10h23.012A2.997 2.997 0 0 1 30 12.999v9.002A2.998 2.998 0 0 1 27.006 25H26v-5H5Zm1-4v8c0 1.105.891 2 1.997 2h15.006A1.993 1.993 0 0 0 25 29v-8zm18-5a1 1 0 1 0 0-2 1 1 0 0 0 0 2zM8 24v1h15v-1zm0 3v1h15v-1z" style="fill:#fff;fill-opacity:1" transform="translate(137 103.151)"/></g><g style="fill:#f1f1f1;fill-opacity:1"><path d="M21 26v2.003A1.995 1.995 0 0 1 19.003 30H3.997A2 2 0 0 1 2 27.993V5.007C2 3.898 2.899 3 4.009 3H14v6.002c0 1.111.898 1.998 2.006 1.998H21v2h-8.993A3.002 3.002 0 0 0 9 15.999v7.002A2.997 2.997 0 0 0 12.007 26ZM15 3v5.997c0 .554.451 1.003.991 1.003H21Zm-3.005 11C10.893 14 10 14.9 10 15.992v7.016A2 2 0 0 0 11.995 25h17.01C30.107 25 31 24.1 31 23.008v-7.016A2 2 0 0 0 29.005 14ZM14 17v6h1v-6h2v-1h-5v1zm6 2.5L18 16h1l1.5 2.625L22 16h1l-2 3.5 2 3.5h-1l-1.5-2.625L19 23h-1Zm6-2.5v6h1v-6h2v-1h-5v1z" style="fill:#f3f3f3;fill-opacity:1" transform="translate(10 78)"/></g><g style="fill:#f1f1f1;fill-opacity:1"><path d="M21 26v2.003A1.995 1.995 0 0 1 19.003 30H3.997A2 2 0 0 1 2 27.993V5.007C2 3.898 2.899 3 4.009 3H14v6.002c0 1.111.898 1.998 2.006 1.998H21v2h-8.993A3.002 3.002 0 0 0 9 15.999v7.002A2.997 2.997 0 0 0 12.007 26ZM15 3v5.997c0 .554.451 1.003.991 1.003H21Zm-3.005 11C10.893 14 10 14.9 10 15.992v7.016A2 2 0 0 0 11.995 25h17.01C30.107 25 31 24.1 31 23.008v-7.016A2 2 0 0 0 29.005 14ZM17 20v2h-2c-.556 0-1-.448-1-1v-3c0-.556.448-1 1-1h3v-1h-2.995A1.999 1.999 0 0 0 13 18.006v2.988c0 1.108.894 2.006 2.005 2.006H18v-4h-3v1zm3-3v5h-1v1h3v-1h-1v-5h1v-1h-3v1zm4 2v-2h4v-1h-5v7h1v-3h3v-1z" style="fill:#fff;fill-opacity:1" transform="translate(69 3.5)"/></g><g style="fill:#f2f2f2;fill-opacity:1"><path d="M21 26v2.003A1.995 1.995 0 0 1 19.003 30H3.997A2 2 0 0 1 2 27.993V5.007C2 3.898 2.899 3 4.009 3H14v6.002c0 1.111.898 1.998 2.006 1.998H21v2h-8.993A3.002 3.002 0 0 0 9 15.999v7.002A2.997 2.997 0 0 0 12.007 26ZM15 3v5.997c0 .554.451 1.003.991 1.003H21Zm-3.005 11C10.893 14 10 14.9 10 15.992v7.016A2 2 0 0 0 11.995 25h17.01C30.107 25 31 24.1 31 23.008v-7.016A2 2 0 0 0 29.005 14ZM12 16v7h1v-3h1.995a2 2 0 1 0 0-4Zm1 1v2h2.001A.997.997 0 0 0 16 18c0-.552-.443-1-.999-1Zm6 1v5h-1v-7h1l3 5v-5h1v7h-1zm9 2v2h-2c-.556 0-1-.448-1-1v-3c0-.556.448-1 1-1h3v-1h-2.995A1.999 1.999 0 0 0 24 18.006v2.988c0 1.108.894 2.006 2.005 2.006H29v-4h-3v1z" style="fill:#f5f5f5;fill-opacity:1" transform="translate(10 135.5)"/></g><path d="M21 26v2.003A1.995 1.995 0 0 1 19.003 30H3.997A2 2 0 0 1 2 27.993V5.007C2 3.898 2.899 3 4.009 3H14v6.002c0 1.111.898 1.998 2.006 1.998H21v2h-8.993A3.002 3.002 0 0 0 9 15.999v7.002A2.997 2.997 0 0 0 12.007 26ZM15 3v5.997c0 .554.451 1.003.991 1.003H21Zm-3.005 11C10.893 14 10 14.9 10 15.992v7.016A2 2 0 0 0 11.995 25h17.01C30.107 25 31 24.1 31 23.008v-7.016A2 2 0 0 0 29.005 14ZM25 19v-2h4v-1h-5v7h1v-3h3v-1Zm-13-3v7h1v-3h1.995a2 2 0 1 0 0-4Zm1 1v2h2.001A.997.997 0 0 0 16 18c0-.552-.443-1-.999-1Zm5-1v7h2.995A1.999 1.999 0 0 0 23 20.994v-2.988A2.003 2.003 0 0 0 20.995 16Zm1 1v5h2.001A.997.997 0 0 0 22 21v-3c0-.552-.443-1-.999-1z" style="fill:#f5f5f5;fill-opacity:1" transform="translate(191.789 60.684) scale(2.10526)"/><g style="fill:#f1f1f1;fill-opacity:1"><path d="M19 26v2.003A1.995 1.995 0 0 1 17.003 30H1.997A2 2 0 0 1 0 27.993V5.007C0 3.898.899 3 2.009 3H12v6.002c0 1.111.898 1.998 2.006 1.998H19v2H6.007A3.002 3.002 0 0 0 3 15.999v7.002A2.997 2.997 0 0 0 6.007 26ZM13 3v5.997c0 .554.451 1.003.991 1.003H19ZM6.007 14C4.899 14 4 14.9 4 15.992v7.016A2 2 0 0 0 6.007 25h22.986C30.101 25 31 24.1 31 23.008v-7.016A2 2 0 0 0 28.993 14ZM6 16v7h2.995A1.999 1.999 0 0 0 11 20.994v-2.988A2.003 2.003 0 0 0 8.995 16Zm1 1v5h2.001A.997.997 0 0 0 10 21v-3c0-.552-.443-1-.999-1Zm7.005-1A1.999 1.999 0 0 0 12 18.006v2.988c0 1.108.894 2.006 2.005 2.006h.99A1.999 1.999 0 0 0 17 20.994v-2.988A2.003 2.003 0 0 0 14.995 16Zm-.006 1A.997.997 0 0 0 13 18v3c0 .552.443 1 .999 1h1.002A.997.997 0 0 0 16 21v-3c0-.552-.443-1-.999-1zM23 21c-.003 1.117-.9 2-2.005 2h-.99A2.003 2.003 0 0 1 18 20.994v-2.988c0-1.119.898-2.006 2.005-2.006h.99c1.109 0 2.002.895 2.005 2h-1c0-.552-.443-1-.999-1h-1.002A.997.997 0 0 0 19 18v3c0 .552.443 1 .999 1h1.002A.997.997 0 0 0 22 21Zm3-1.5L24 16h1l1.5 2.625L28 16h1l-2 3.5 2 3.5h-1l-1.5-2.625L25 23h-1z" style="fill:#f2f2f2;fill-opacity:1" transform="translate(141 149)"/></g><g style="fill:#fff;fill-opacity:1"><path d="M21 26v2.003A1.995 1.995 0 0 1 19.003 30H3.997A2 2 0 0 1 2 27.993V5.007C2 3.898 2.899 3 4.009 3H14v6.002c0 1.111.898 1.998 2.006 1.998H21v2h-8.993A3.002 3.002 0 0 0 9 15.999v7.002A2.997 2.997 0 0 0 12.007 26ZM15 3v5.997c0 .554.451 1.003.991 1.003H21Zm-3.005 11C10.893 14 10 14.9 10 15.992v7.016A2 2 0 0 0 11.995 25h17.01C30.107 25 31 24.1 31 23.008v-7.016A2 2 0 0 0 29.005 14ZM14 19.5 12 16h1l1.5 2.625L16 16h1l-2 3.5 2 3.5h-1l-1.5-2.625L13 23h-1zm9 2.5v1h-5v-7h1v6zm3.005-6A1.998 1.998 0 0 0 24 18c0 1.105.888 2 2 2h.991c.557 0 1.009.444 1.009 1 0 .552-.443 1-.999 1h-1.002c-.552 0-.999-.456-.999-.996v-.011h-1v.006A2 2 0 0 0 26.005 23h.99A1.998 1.998 0 0 0 29 21c0-1.105-.888-2-2-2h-.991A1.002 1.002 0 0 1 25 18c0-.552.443-1 .999-1h1.002c.552 0 .999.453.999 1h1a2 2 0 0 0-2.005-2z" style="fill:#f5f5f5;fill-opacity:1" transform="translate(248.634 48)"/></g><path d="M19 26v2.003A1.995 1.995 0 0 1 17.003 30H1.997A2 2 0 0 1 0 27.993V5.007C0 3.898.899 3 2.009 3H12v6.002c0 1.111.898 1.998 2.006 1.998H19v2H8.007A3.002 3.002 0 0 0 5 15.999v7.002A2.997 2.997 0 0 0 8.007 26ZM13 3v5.997c0 .554.451 1.003.991 1.003H19ZM8.004 14C6.897 14 6 14.9 6 15.992v7.016C6 24.108 6.89 25 8.004 25h20.992C30.103 25 31 24.1 31 23.008v-7.016c0-1.1-.89-1.992-2.004-1.992ZM10 17v6h1v-6h2v-1H8v1zm5 0v5h-1v1h3v-1h-1v-5h1v-1h-3v1zm4 2v-2h4v-1h-5v7h1v-3h3v-1zm6 0v-2h4v-1h-5v7h1v-3h3v-1z" style="fill:#f8f8f8;fill-opacity:1" transform="translate(237.5 154)"/></svg>